<svg viewBox="0 -12 460.00686 460" xmlns="http://www.w3.org/2000/svg"><path d="m452.445312 340.933594v.140625c-.035156 24.292969-19.757812 43.957031-44.046874 43.921875h-.160157c-24.292969-.042969-43.953125-19.769532-43.910156-44.0625v-13.289063h88.117187zm0 0" fill="#00acea"/><path d="m408.238281 384.996094h-159.742187v-40.21875l7.160156-14.171875 17-8.589844-1.050781-19.109375 10.519531-15.949219-10.519531-15.953125 1.050781-19.109375-17-8.589843-8.589844-17-19.109375 1.050781-15.949219-10.519531-15.949218 10.519531-19.113282-1.050781-8.589843 17-17 8.589843 1.050781 19.109375-10.519531 15.953125 10.519531 15.949219-1.050781 19.109375 17 8.589844 7.160156 14.171875v40.21875h-54.117187c-23.082032 0-41.972657-18.359375-41.972657-41.441406l-2.097656-267.539063v-.519531h168.449219v-8.289063c-.035156-31.128906 24.039062-56.964843 55.089844-59.132812 1.339843-.097657 2.691406-.148438 4.058593-.148438h.121094c32.703125-.035156 59.242187 26.445313 59.28125 59.148438v273.859375c-.042969 24.292968 19.617187 44.019531 43.910156 44.0625zm0 0" fill="#00efd1"/><path d="m300.855469 7.925781.011719.148438c-31.050782 2.167969-55.125 28.003906-55.089844 59.132812v8.289063h-238.210938v-8.421875c.035156-32.675781 26.535156-59.148438 59.210938-59.148438zm0 0" fill="#00acea"/><path d="m248.496094 344.777344-1.429688 2.828125-19.109375-1.050781-15.949219 10.519531-15.949218-10.519531-19.113282 1.050781-1.429687-2.828125-7.160156-14.171875-17-8.589844 1.050781-19.109375-10.519531-15.949219 10.519531-15.953125-1.050781-19.109375 17-8.589843 8.589843-17 19.113282 1.050781 15.949218-10.519531 15.949219 10.519531 19.109375-1.050781 8.589844 17 17 8.589843-1.050781 19.109375 10.519531 15.953125-10.519531 15.949219 1.050781 19.109375-17 8.589844zm-.929688-57.820313c0-19.640625-15.921875-35.5625-35.558594-35.5625-19.640624 0-35.5625 15.921875-35.5625 35.5625 0 19.636719 15.921876 35.558594 35.5625 35.558594 19.636719 0 35.558594-15.921875 35.558594-35.558594zm0 0" fill="#00acea"/><path d="m248.496094 384.996094v43.46875l-36.488282-22.25-36.492187 22.25v-83.6875l1.429687 2.828125 19.113282-1.050781 15.949218 10.519531 15.949219-10.519531 19.109375 1.050781 1.429688-2.828125zm0 0" fill="#fedb41"/><path d="m247.566406 286.957031c0 19.636719-15.921875 35.558594-35.558594 35.558594-19.640624 0-35.5625-15.921875-35.5625-35.558594 0-19.640625 15.921876-35.5625 35.5625-35.5625 19.636719 0 35.558594 15.921875 35.558594 35.5625zm0 0" fill="#fedb41"/><g fill="#083863"><path d="m7.566406 83.195312h61.820313l2.039062 260.308594c.160157 27.488282 22.484375 49.6875 49.972657 49.691406h46.609374v35.269532c-.117187 2.859375 1.359376 5.546875 3.835938 6.980468 2.476562 1.433594 5.542969 1.378907 7.964844-.148437l32.261718-19.710937 32.292969 19.710937c1.25.761719 2.683594 1.167969 4.148438 1.167969 1.292969 0 2.558593-.355469 3.664062-1.023438 2.460938-1.445312 3.929688-4.125 3.832031-6.976562v-35.269532h152.445313c28.625 0 51.554687-23.472656 51.554687-52.121093v-13.429688c0-4.417969-3.144531-8.449219-7.5625-8.449219h-80.4375v-252.128906c.027344-17.75-7.015624-34.777344-19.566406-47.324218-12.554687-12.546876-29.585937-19.582032-47.335937-19.546876h-.179688c-1.375 0-2.921875-.2187495-3.921875-.132812v.132812h-236.996094v-.19140575c-35.878906 1.55078175-64.132812 31.16015575-63.9999995 67.07031275v8.421875c-.0898437 2.042968.6757815 4.03125 2.1054685 5.492187 1.433594 1.457031 3.410157 2.257813 5.453125 2.207031zm151.519532 215.304688-7.617188-11.542969 7.617188-11.546875c.945312-1.433594 1.402343-3.128906 1.308593-4.84375l-.761719-13.890625 12.332032-6.230469c1.523437-.769531 2.761718-2.007812 3.53125-3.53125l6.234375-12.332031 13.886719.761719c1.714843.097656 3.414062-.363281 4.84375-1.308594l11.546874-7.617187 11.542969 7.617187c1.433594.945313 3.132813 1.402344 4.84375 1.308594l13.890625-.761719 6.230469 12.332031c.769531 1.523438 2.007813 2.761719 3.535156 3.53125l12.332031 6.230469-.765624 13.890625c-.09375 1.714844.367187 3.410156 1.3125 4.84375l7.613281 11.546875-7.613281 11.542969c-.945313 1.433594-1.40625 3.132812-1.3125 4.84375l.765624 13.890625-12.332031 6.230469c-1.527343.769531-2.765625 2.007812-3.535156 3.53125l-6.230469 12.335937-13.890625-.765625c-1.710937-.09375-3.410156.363282-4.84375 1.3125l-11.542969 7.617188-11.546874-7.613282c-1.304688-.863281-2.839844-1.324218-4.402344-1.324218-.148438 0-.292969 0-.441406.011718l-13.886719.765626-6.234375-12.339844c-.769532-1.523438-2.007813-2.761719-3.53125-3.53125l-12.332032-6.234375.761719-13.886719c.09375-1.714844-.363281-3.410156-1.308593-4.84375zm56.839843 100.882812c-2.425781-1.558593-5.535156-1.558593-7.960937 0l-23.957032 14.835938v-58.960938l10.097657-.570312 13.625 9.066406c1.28125.859375 2.792969 1.320313 4.339843 1.320313 1.558594 0 3.078126-.457031 4.375-1.320313l13.484376-9.066406 10.082031.570312v58.960938zm156.082031-64.1875h72v5.867188c0 19.824219-15.734374 36.132812-35.574218 36.132812h-.183594c-19.972656-.125-36.125-16.289062-36.242188-36.261718zm-67.082031-319h.175781c13.507813-.039062 26.476563 5.308594 36.03125 14.859376 9.550782 9.546874 14.90625 22.511718 14.875 36.019531v273.847656c0 13.988281 5.839844 26.273437 14.84375 36.273437h-114.84375v-30.511718l5.359376-10.125 14.777343-7.402344c2.847657-1.425781 4.589844-4.398438 4.4375-7.578125l-.875-16.472656 9.082031-13.746094c1.765626-2.667969 1.769532-6.136719.007813-8.808594l-9.0625-13.746093.910156-16.46875c.171875-3.171876-1.546875-6.148438-4.378906-7.582032l-14.660156-7.402344-7.398438-14.65625c-1.429687-2.835937-4.40625-4.554687-7.578125-4.378906l-16.472656.898438-13.746094-9.0625c-2.671875-1.765625-6.136718-1.765625-8.808594 0l-13.742187 9.0625-16.472656-.898438c-3.171875-.179687-6.148438 1.542969-7.578125 4.378906l-7.402344 14.65625-14.652344 7.402344c-2.835937 1.433594-4.554687 4.410156-4.378906 7.582032l.902344 16.46875-9.070313 13.746093c-1.761719 2.671875-1.761719 6.136719 0 8.808594l9.066407 13.746094-.90625 16.472656c-.175782 3.171875 1.542968 6.144531 4.378906 7.578125l14.902344 7.402344 5.359374 10.125v30.511718h-46.609374c-18.679688 0-33.851563-15.078124-33.972657-33.753906l-2.039062-260.246094h160.390625c2.113281.074219 4.171875-.695312 5.714844-2.140624 1.542968-1.445313 2.449218-3.445313 2.515624-5.558594v-8.300782c-.003906-26.859374 20.777344-49.140624 47.570313-51.007812 1.132813-.085938 2.183594.007812 3.347656.007812zm-288.917969 50.886719c-.0625-13.496093 5.261719-26.457031 14.792969-36.007812 9.53125-9.554688 22.480469-14.910157 35.976563-14.878907h194.789062c-15.074218 12.632813-23.714844 31.34375-23.558594 51.011719v-.011719h-222zm0 0"/><path d="m212.007812 330.515625c24.054688 0 43.558594-19.503906 43.558594-43.558594 0-24.058593-19.503906-43.5625-43.558594-43.5625-24.058593 0-43.5625 19.503907-43.5625 43.5625.027344 24.042969 19.515626 43.53125 43.5625 43.558594zm0-71.121094c15.21875 0 27.558594 12.339844 27.558594 27.5625 0 15.21875-12.339844 27.558594-27.558594 27.558594-15.222656 0-27.5625-12.339844-27.5625-27.558594.019532-15.214843 12.347657-27.542969 27.5625-27.5625zm0 0"/><path d="m124.007812 128.195312h96c4.417969 0 8-3.582031 8-8 0-4.417968-3.582031-8-8-8h-96c-4.417968 0-8 3.582032-8 8 0 4.417969 3.582032 8 8 8zm0 0"/><path d="m116.007812 150.195312c0 4.417969 3.582032 8 8 8h186c4.417969 0 8-3.582031 8-8 0-4.417968-3.582031-8-8-8h-186c-4.417968 0-8 3.582032-8 8zm0 0"/><path d="m310.007812 172.195312h-186c-4.417968 0-8 3.582032-8 8 0 4.417969 3.582032 8 8 8h186c4.417969 0 8-3.582031 8-8 0-4.417968-3.582031-8-8-8zm0 0"/></g></svg>